<svg xmlns="http://www.w3.org/2000/svg" width="37" height="31" viewBox="0 0 37 31"><g><g><path fill="#fff" d="M37.016 3.673a14.811 14.811 0 0 1-4.361 1.232A7.808 7.808 0 0 0 35.993.578a14.93 14.93 0 0 1-4.822 1.898C29.786.955 27.813.006 25.628.006c-4.194 0-7.593 3.502-7.593 7.823 0 .614.068 1.21.197 1.782-6.31-.324-11.904-3.44-15.65-8.173A7.963 7.963 0 0 0 1.557 5.37c0 2.715 1.34 5.11 3.377 6.512a7.402 7.402 0 0 1-3.439-.979v.099c0 3.79 2.616 6.951 6.091 7.672a7.435 7.435 0 0 1-2 .274c-.489 0-.966-.05-1.429-.142.966 3.108 3.77 5.369 7.093 5.432-2.599 2.098-5.873 3.35-9.431 3.35-.612 0-1.218-.036-1.812-.11 3.36 2.22 7.35 3.516 11.64 3.516 13.966 0 21.603-11.922 21.603-22.259 0-.339-.008-.676-.022-1.01a15.715 15.715 0 0 0 3.789-4.05z"/></g></g></svg>