<svg xmlns="http://www.w3.org/2000/svg" width="31" height="28" viewBox="0 0 31 28"><g><g><path fill="#fff" d="M30.991 6.88h-4.768l.004 4.17-1.434-.041V6.88h-4.768V5.504h4.768V.914h1.434l-.004 4.59h4.768zm-15.85 9.23c2.415 1.62 3.196 3.123 3.196 5.632 0 3.13-3.196 6.244-8.982 6.244C4.28 27.986 0 26.027 0 22.896c0-3.178 3.906-6.243 8.98-6.243.553 0 1.06-.015 1.585-.015-.695-.639-1.245-1.426-1.245-2.394 0-.575.193-1.128.464-1.62-.276.02-.557.025-.847.025-4.167 0-6.96-2.813-6.96-6.297 0-3.411 3.855-6.355 7.952-6.355 2.285 0 8.291.918 8.291.918l-1.197.485h-2.898c1.922.7 2.945 2.827 2.945 5.005 0 1.834-1.069 3.408-2.58 4.528-1.475 1.092-1.755 1.55-1.755 2.478 0 .793 1.58 2.14 2.406 2.696zm-1.358-9.535c-.407-2.933-2.645-5.285-4.999-5.352-2.353-.065-3.933 2.178-3.526 5.11.407 2.933 2.644 5.365 4.999 5.432 2.352.066 3.931-2.256 3.526-5.19zm2.202 15.518c0-.305-.04-.603-.112-.894-.384-1.433-1.75-2.142-3.655-3.397a8.015 8.015 0 0 0-2.274-.346c-3.507-.036-6.65 2.03-6.65 4.508 0 2.529 2.534 4.635 6.041 4.635 4.931 0 6.65-1.977 6.65-4.506z"/></g></g></svg>