<svg xmlns="http://www.w3.org/2000/svg" width="51" height="32" viewBox="0 0 51 32"><g><g><path fill="#fff" d="M26.484 22.069c0 9.551-10.04 9.237-10.04 9.237H0V.011h16.445c4.997 0 8.699 2.56 8.699 8.16 0 5.599-4.579 6.127-4.579 6.127 6.357 0 5.919 7.77 5.919 7.77zM7.474 5.45v6.8h8.156c1.49 0 3.05-.167 3.05-3.422 0-3.256-2.37-3.378-2.37-3.378zm12.302 16.228c0-4.342-3.467-4.669-3.467-4.669H7.475v8.84h8.834c1.308-.027 3.467-.512 3.467-4.17zm31.186.07c.005.022-16.304.022-16.304.022 0 5.813 5.436 5.44 5.436 5.44 5.253 0 5.437-3.401 5.437-3.401h5.436c0 8.934-11.094 8.15-11.094 8.15-12.977 0-12.011-11.549-12.011-11.549s.08-12.116 12.232-12.24c12.76-.13 10.698 12.893 10.868 13.578zm-6.11-4.058s.124-4.76-4.758-4.76-5.436 4.76-5.436 4.76zM46.21 5.45H33.298V2.05H46.21z"/></g></g></svg>