<svg xmlns="http://www.w3.org/2000/svg" width="48" height="38" viewBox="0 0 48 38"><defs><linearGradient id="co9ka" x1="4.99" x2="43" y1=".01" y2="37.99" gradientUnits="userSpaceOnUse"><stop offset="0" stop-color="#26a69a"/><stop offset="1" stop-color="#ab47bc"/></linearGradient></defs><g><g><path fill="url(#co9ka)" d="M38.275 27.188c-.844 3.328-3.519 5.769-6.819 6.254v3.448c0 .61-.486 1.103-1.085 1.103H8.23a1.093 1.093 0 0 1-1.085-1.103v-3.46c-4.035-.6-7.158-4.12-7.158-8.403V1.117C-.014.506.472.01 1.071.01H37.53c.595 0 1.085.496 1.085 1.107v4.87C43.876 6.549 48 11.054 48 16.57c0 5.635-4.302 10.217-9.726 10.618zm.595-14.382c-.08-.026-.173-.026-.256-.053v7.63c.083-.019.177-.019.256-.05.158-.06.305-.138.456-.219.271-.146.52-.315.753-.522.125-.112.256-.223.37-.354.21-.243.38-.52.534-.808.064-.134.155-.26.211-.407.174-.45.29-.938.29-1.453 0-.515-.116-1-.29-1.457-.056-.142-.147-.265-.21-.404a4.575 4.575 0 0 0-.536-.807c-.112-.127-.244-.242-.369-.353a4.107 4.107 0 0 0-.753-.523c-.15-.077-.298-.158-.456-.22zm-9.587 20.747H9.313v2.226h19.97zm7.063-7.58c.045-.311.098-.615.098-.946v-22.8H2.16v22.8c0 3.482 2.772 6.315 6.178 6.315h21.92c3.06 0 5.617-2.26 6.088-5.37zm9.486-9.403c0-4.302-3.146-7.861-7.218-8.407v2.248c.019.005.034.016.053.02.632.123 1.22.362 1.774.669.087.054.177.093.267.146.516.327.98.73 1.379 1.188.075.084.136.165.203.253.385.489.705 1.03.938 1.623.023.077.046.161.068.239.215.637.358 1.31.358 2.021 0 .711-.143 1.387-.358 2.018-.022.085-.045.165-.068.246a6.483 6.483 0 0 1-.938 1.622c-.067.081-.128.165-.203.246-.4.465-.863.865-1.379 1.188-.09.055-.18.1-.267.15a6.007 6.007 0 0 1-1.774.669c-.02.004-.034.015-.053.02v2.252c4.072-.546 7.218-4.113 7.218-8.41z"/></g></g></svg>