<svg xmlns="http://www.w3.org/2000/svg" width="50" height="40" viewBox="0 0 50 40"><defs><linearGradient id="t3jba" x1="5" x2="44.99" y1="-.01" y2="39.99" gradientUnits="userSpaceOnUse"><stop offset="0" stop-color="#26a69a"/><stop offset="1" stop-color="#ab47bc"/></linearGradient></defs><g><g><path fill="url(#t3jba)" d="M49.99 30.316c0 4.079-2.664 7.733-6.629 9.098-1.136.39-2.203.58-3.268.58h-3.014a.887.887 0 0 1-.896-.876V21.517c0-.484.404-.876.896-.876h2.08v-5.049c0-7.637-6.355-13.85-14.168-13.85-7.81 0-14.164 6.213-14.164 13.85v5.05h2.08c.495 0 .896.391.896.875v17.601c0 .484-.4.875-.896.875h-3.01c-1.088 0-2.172-.194-3.315-.594C2.643 38.024 0 34.375 0 30.316c0-4.056 2.643-7.707 6.582-9.082.84-.297 1.65-.443 2.452-.517v-5.125c0-8.605 7.158-15.605 15.957-15.605 8.8 0 15.958 7 15.958 15.605v5.125c.785.074 1.582.217 2.412.504 3.966 1.363 6.628 5.017 6.628 9.095zM5.986 37.217V23.414c-2.553 1.38-4.193 4.014-4.193 6.902 0 2.887 1.64 5.527 4.193 6.901zm6.025-14.822H9.896c-.693 0-1.393.1-2.116.303v15.237a7.636 7.636 0 0 0 2.116.305h2.116zM40.093 38.24c.674 0 1.354-.099 2.077-.293V22.69a7.782 7.782 0 0 0-2.077-.294h-2.116V38.24zm8.103-7.924c0-2.906-1.66-5.551-4.232-6.92V37.24c2.572-1.368 4.232-4.018 4.232-6.924z"/></g></g></svg>