<svg xmlns="http://www.w3.org/2000/svg" width="49" height="46" viewBox="0 0 49 46"><defs><linearGradient id="hwura" x1="1.02" x2="47.99" y1="-.02" y2="46" gradientUnits="userSpaceOnUse"><stop offset="0" stop-color="#26a69a"/><stop offset="1" stop-color="#ab47bc"/></linearGradient></defs><g><g><path fill="url(#hwura)" d="M48.651 17.166L26.844 37.02l-2.575 2.345a1.106 1.106 0 0 1-.431.237L8.062 44.066 1.353 45.96a1.038 1.038 0 0 1-1.26-1.368l2.504-6.487 5.865-15.188c.012-.031.023-.065.035-.09a1.07 1.07 0 0 1 .325-.43l2.518-2.292L33.151.25c.314-.29.772-.355 1.154-.173 3.395 1.628 6.379 3.832 8.87 6.554a28.795 28.795 0 0 1 5.749 9.403 1.04 1.04 0 0 1-.273 1.13zM2.787 43.398l3.588-1.017c-.019-.046-.03-.098-.057-.14-.238-.467-.51-.905-.854-1.281-.344-.38-.76-.69-1.206-.97-.042-.022-.091-.037-.133-.063zm21.879-7.21L13.299 23.78l-1.32-1.439-1.633 1.48-5.453 14.12c.087.045.14.124.227.173.7.404 1.35.863 1.883 1.444.53.58.934 1.266 1.27 1.997.046.087.118.155.16.245l14.607-4.13zm22.053-20.077a26.68 26.68 0 0 0-5.082-8.073 26.63 26.63 0 0 0-7.608-5.779l-20.51 18.676 3.293 3.6L34.146 8.752a1.052 1.052 0 0 1 1.475.065 1.038 1.038 0 0 1-.068 1.47l-17.33 15.777 2.597 2.841.677.742 17.338-15.776a1.046 1.046 0 0 1 1.47.065c.186.199.273.45.273.695 0 .287-.113.567-.336.774L22.904 31.183l3.3 3.604z"/></g></g></svg>