<svg xmlns="http://www.w3.org/2000/svg" width="42" height="44" viewBox="0 0 42 44"><defs><linearGradient id="fcwza" x1="0" x2="42" y1="1" y2="42.99" gradientUnits="userSpaceOnUse"><stop offset="0" stop-color="#26a69a"/><stop offset="1" stop-color="#ab47bc"/></linearGradient></defs><g><g><path fill="url(#fcwza)" d="M29.68 44.004H12.31a.85.85 0 0 1-.857-.838v-7.288C4.411 32.363.04 25.51 0 17.867-.042 10.604 4.009 3.8 10.569.12a.863.863 0 0 1 .856 0c.265.148.43.427.43.721V14.55l9.14 5.128 9.133-5.128V.83a.84.84 0 0 1 .43-.726.881.881 0 0 1 .857 0c6.569 3.691 10.523 10.246 10.576 17.533.04 7.645-4.44 14.75-11.455 18.257v7.272a.848.848 0 0 1-.857.838zm-16.51-1.671h15.653v-6.957c0-.322.187-.617.486-.756 6.696-3.133 11.003-9.796 10.965-16.974-.047-6.193-3.169-11.816-8.429-15.307v12.693a.841.841 0 0 1-.43.725l-9.99 5.61a.872.872 0 0 1-.86 0l-9.997-5.61a.841.841 0 0 1-.43-.725V2.357c-5.263 3.51-8.457 9.323-8.422 15.504.037 7.17 4.24 13.587 10.968 16.747.3.14.486.434.486.752z"/></g></g></svg>