<svg xmlns="http://www.w3.org/2000/svg" width="50" height="41" viewBox="0 0 50 41"><defs><linearGradient id="7ygra" x1="4" x2="45.99" y1="0" y2="40.99" gradientUnits="userSpaceOnUse"><stop offset="0" stop-color="#26a69a"/><stop offset="1" stop-color="#ab47bc"/></linearGradient></defs><g><g><path fill="url(#7ygra)" d="M49.988 6.93v33.166a.899.899 0 0 1-.895.896H.9a.9.9 0 0 1-.898-.896V6.929c0-.078.065-.123.08-.195.02-.064-.015-.13.017-.195L3.11.494a.894.894 0 0 1 .801-.495h21.085c.339 0 .651.192.801.495l2.748 5.537h20.548a.9.9 0 0 1 .895.898zM2.352 6.03h24.187l-2.1-4.237H4.466zm45.842 1.795H28.151c-.049.01-.098.036-.147.036-.045 0-.081-.026-.127-.036H1.795v31.371h46.4z"/></g></g></svg>