<svg xmlns="http://www.w3.org/2000/svg" width="50" height="41" viewBox="0 0 50 41"><defs><linearGradient id="7u0za" x1="3.99" x2="45.99" y1="-.01" y2="41.01" gradientUnits="userSpaceOnUse"><stop offset="0" stop-color="#26a69a"/><stop offset="1" stop-color="#ab47bc"/></linearGradient></defs><g><g><path fill="url(#7u0za)" d="M49.969 13.001a.9.9 0 0 1-.207.54L25.667 40.7c-.02.023-.056.013-.079.036-.062.059-.115.11-.194.15-.016.01-.02.04-.042.046a.976.976 0 0 1-.365.074.973.973 0 0 1-.36-.074c-.024-.007-.027-.036-.043-.043-.08-.043-.132-.094-.197-.153-.02-.023-.056-.013-.076-.036L.216 13.542a.896.896 0 0 1-.204-.54c0-.02-.02-.034-.02-.053 0-.04.033-.06.037-.098.013-.085-.004-.173.032-.254L5.202.534a.908.908 0 0 1 .834-.547h37.912c.365 0 .693.218.834.547l5.138 12.063c.036.081.02.169.03.254.006.039.039.058.039.098 0 .019-.02.033-.02.052zM18.849 1.783l-4.435 10.269h21.154L31.136 1.783zm-4.422 12.062l10.56 24.018 10.567-24.018zm-11.533 0l18.948 21.36-9.392-21.36zm25.241 21.357l18.948-21.357h-9.552zM43.348 1.783H33.102l4.432 10.269h10.19zM2.258 12.052H12.45l4.435-10.269H6.634z"/></g></g></svg>