<svg xmlns="http://www.w3.org/2000/svg" width="50" height="47" viewBox="0 0 50 47"><defs><linearGradient id="u7sca" x1="2" x2="47.99" y1=".01" y2="46.99" gradientUnits="userSpaceOnUse"><stop offset="0" stop-color="#26a69a"/><stop offset="1" stop-color="#ab47bc"/></linearGradient></defs><g><g><path fill="url(#u7sca)" d="M49.986 28.05l.003.01v6.081c0 .01-.003.01-.003.01v11.938a.9.9 0 0 1-.9.905H3.905C1.75 46.994 0 45.228 0 43.048v-33.01A3.902 3.902 0 0 1 1.137 7.25a3.843 3.843 0 0 1 2.767-1.16h9.444c.494 0 .896.408.896.905a.9.9 0 0 1-.896.904H3.904a2.09 2.09 0 0 0-1.498.63 2.117 2.117 0 0 0-.616 1.507c0 .234.062.447.13.658.1.317.253.61.486.848a2.08 2.08 0 0 0 1.491.632h5.877L21.56.277a.896.896 0 0 1 .635-.27c.24 0 .466.097.634.27l8.314 8.394 5.307-5.352a.905.905 0 0 1 1.264 0l8.772 8.856h2.602c.498 0 .9.401.9.902zm-1.793.915h-16.21v4.274h16.21zM32.415 9.953l2.195 2.222h9.34l-6.869-6.942zm-20.104 2.222H32.07l-9.876-9.984zm35.882 33.01V35.048H31.086a.901.901 0 0 1-.893-.908v-6.08c0-.497.402-.906.893-.906h17.107v-13.17H3.897c-.006 0-.009-.01-.015-.01-.467 0-.9-.103-1.317-.26-.121-.042-.23-.098-.345-.154-.143-.073-.296-.113-.43-.202v29.688c0 1.182.953 2.137 2.114 2.137zM42.205 6.995c0-.497.401-.905.9-.905h5.988c.495 0 .896.408.896.905a.9.9 0 0 1-.896.904h-5.989a.901.901 0 0 1-.9-.904z"/></g></g></svg>